<?xml version="1.0" standalone="no"?><!DOCTYPE svg PUBLIC "-//W3C//DTD SVG 1.1//EN" "http://www.w3.org/Graphics/SVG/1.1/DTD/svg11.dtd"><svg t="1732419143629" class="icon" viewBox="0 0 1034 1024" version="1.1" xmlns="http://www.w3.org/2000/svg" p-id="70106" xmlns:xlink="http://www.w3.org/1999/xlink" width="129.25" height="128"><path d="M978.326862 771.845983v84.66729c0 82.196065-66.878922 149.074986-149.074987 149.074987H172.117491c-82.196065 0-149.074986-66.878922-149.074986-149.074987V302.424524c0-18.445135 14.949799-33.394934 33.394934-33.394934s33.394934 14.949799 33.394934 33.394934v554.088749c0 45.372584 36.912534 82.285118 82.285118 82.285118h657.134384c45.372584 0 82.285118-36.912534 82.285118-82.285118v-84.66729c0-18.445135 14.949799-33.394934 33.394934-33.394934s33.394934 14.949799 33.394935 33.394934z m-664.592587-18.745689c8.549103 0 17.098206-3.261572 23.610219-9.784716l495.14669-495.135558v230.458441c0 18.445135 14.949799 33.394934 33.394934 33.394934s33.394934-14.949799 33.394934-33.394934V166.740907c0-18.445135-14.949799-33.394934-33.394934-33.394935H553.988564c-18.445135 0-33.394934 14.949799-33.394934 33.394935s14.949799 33.394934 33.394934 33.394934h232.094793L290.135189 696.084009c-13.046288 13.046288-13.046288 34.185281 0 47.231569a33.294749 33.294749 0 0 0 23.610218 9.784716z" p-id="70107" fill="#ffffff"></path></svg>